<svg width="159.937" height="34.531" xmlns="http://www.w3.org/2000/svg" data-name="Shape logo">
 <g>
  <title>Layer 1</title>
  <path fill-rule="evenodd" fill="#191a1f" class="cls-1" id="Shape"/>
  <g data-name="logo icon" id="logo_icon">
   <path id="svg_1" fill="#2163e8" fill-rule="evenodd" d="m8.98101,28.19701l-0.262,0l-4.687,-0.087a4,4 0 0 1 -3.956,-2.946a3.453,3.453 0 0 1 -0.091,-0.878q0.018,-10.031 0.051,-20.585a3.487,3.487 0 0 1 2.507,-3.5a3.8,3.8 0 0 1 1.728,-0.162c10.458,1.141 20.234,2.206 29.392,3.208a3.564,3.564 0 0 1 3.1,3.14a4.067,4.067 0 0 1 0.017,0.84q-0.647,9.278 -1.274,18.141a3.4,3.4 0 0 1 -2.086,2.994a3.147,3.147 0 0 1 -1.425,0.268q-7.608,-0.144 -15.782,-0.3a0.5,0.5 0 0 0 -0.4,0.159q-2.883,2.88 -5.805,5.782a0.643,0.643 0 0 1 -1.088,-0.093a0.92,0.92 0 0 1 -0.05,-0.378q0.046,-2.655 0.1,-5.347c0.008,-0.08 0.009,-0.157 0.011,-0.256z" class="cls-2"/>
   <path opacity="0.8" fill="#fff" fill-rule="evenodd" d="m10.67601,16.16601c-0.063,2.777 1.106,4.208 3.478,4.314s3.589,-0.974 3.671,-3.252c0.08,-2.232 -0.959,-3.428 -3.142,-3.575a4.688,4.688 0 0 1 2.441,-2.871l0.088,-2.551c-4.233,0.894 -6.437,3.564 -6.536,7.94l0,0l0,-0.005zm16.378,-3.006c0.142,-2.691 -0.893,-4.142 -3.133,-4.335c-2.314,-0.2 -3.532,0.87 -3.626,3.195c-0.09,2.241 0.918,3.42 3,3.551a4.687,4.687 0 0 1 -2.357,2.8l-0.1,2.41c3.946,-0.956 6,-3.474 6.215,-7.618l0,0l0.001,-0.003z" class="cls-3" data-name="‘’" id="_"/>
  </g>
  <text fill="#ffffff" stroke-width="0" x="57.96851" y="19.46552" id="svg_2" font-size="24" font-family="'Saira'" text-anchor="start" xml:space="preserve" stroke="#000" transform="matrix(1.22572 0 0 0.749457 -25.2816 8.29433)">Blog</text>
 </g>

</svg>